# xmcd
#
# Track frame offsets: 
#        150
#        18092
#        37465
#        51475
#        66032
#        81575
#        97610
#        113620
#        128197
#        141875
#        158605
#        168515
#        181087
#        195422
#        216610
#        234707
#
# Disc length: 3163 seconds
#
# Revision: 0
# Processed by: cddbd v1.5.1PL0 Copyright (c) Steve Scherf et al.
# Submitted via: ExactAudioCopy v0.95a4
#
DISCID=de0c5910
DTITLE=Ken Emerson and friends - Hawaiian Tangos, Hulas and Blues
DYEAR=2004
DGENRE=Folk
TTITLE0=Roselani
TTITLE1=Perfection
TTITLE2=Sitting On Top Of The World
TTITLE3=Natural Fact
TTITLE4=Moonshadows On Coconut Grove
TTITLE5=Tropico Pacifico
TTITLE6=Kalamaula
TTITLE7=Ka Mele NaheNahe O Ke Kai
TTITLE8=Ulupalakua
TTITLE9=Hilo Hanakahi
TTITLE10=Slack Key Uku`
TTITLE11=The Third Man Theme
TTITLE12=Kalihi Blues
TTITLE13=Wahine Ilikea
TTITLE14=Limahuli Dream
TTITLE15=Oli Aloha
EXTD=
EXTT0=
EXTT1=
EXTT2=
EXTT3=
EXTT4=
EXTT5=
EXTT6=
EXTT7=
EXTT8=
EXTT9=
EXTT10=
EXTT11=
EXTT12=
EXTT13=
EXTT14=
EXTT15=
PLAYORDER=
